ffmpeg started on 2024-04-21 at 13:33:49
Report written to "D:/java/GitHub/pornMagnetSpringBoot/_91pornyy/ffmpeg_and_SimpleG/Logs/2024-04-21_13-33-30-250_ffreport.log"
Command line:
"D:\\java\\GitHub\\pornMagnetSpringBoot\\ffmpeg.exe" -loglevel warning -i "concat:00.ts|01.ts|02.ts|03.ts|04.ts|05.ts|06.ts|07.ts|08.ts|09.ts|10.ts|11.ts|12.ts|13.ts|14.ts|" -map "0:v?" -map "0:a?" -map "0:s?" -metadata "date=2024-04-21T13:33:49.0453696+08:00" -metadata "encoding_tool=" -metadata "title=" -metadata "copyright=" -metadata "comment=" -metadata:s:a:0 "handler_name=" -metadata:s:a:0 "handler=" -c copy -y -bsf:a aac_adtstoasc "D:\\java\\GitHub\\pornMagnetSpringBoot\\_91pornyy\\ffmpeg_and_SimpleG\\Downloads\\\xc2\xb6\xc1\xb3\xb1\xb1\xbe\xa9\xd3\xf9\xbd\xe3\xb1\xbb\xb2\xd9\xb5\xbd\xd2\xe2\xca\xb6\xc4\xa3\xba\xfd.mp4"
ffmpeg version N-94813-g85386c36e3-ffmpeg-for-N_m3u8DL-CLI Copyright (c) 2000-2019 the FFmpeg developers
  built with gcc 8.2.0 (GCC)
  libavutil      56. 35.100 / 56. 35.100
  libavcodec     58. 56.101 / 58. 56.101
  libavformat    58. 32.104 / 58. 32.104
  libavfilter     7. 58.102 /  7. 58.102
  libavresample   4.  0.  0 /  4.  0.  0
  libswresample   3.  6.100 /  3.  6.100
Input #0, mpegts, from 'concat:00.ts|01.ts|02.ts|03.ts|04.ts|05.ts|06.ts|07.ts|08.ts|09.ts|10.ts|11.ts|12.ts|13.ts|14.ts|':
  Duration: 00:01:35.38, start: 1.456778, bitrate: 410 kb/s
  Program 1 
    Metadata:
      service_name    : Service01
      service_provider: FFmpeg
    Stream #0:0[0x100]: Video: h264 ([27][0][0][0] / 0x001B), yuv420p(progressive), 202x360 [SAR 135:101 DAR 3:4], 25 fps, 25 tbr, 90k tbn, 50 tbc
    Stream #0:1[0x101](und): Audio: aac ([15][0][0][0] / 0x000F), 44100 Hz, stereo, fltp, 4 kb/s
Output #0, mp4, to 'D:\java\GitHub\pornMagnetSpringBoot\_91pornyy\ffmpeg_and_SimpleG\Downloads\露脸北京御姐被操到意识模糊.mp4':
  Metadata:
    date            : 2024-04-21T13:33:49.0453696+08:00
    encoder         : Lavf58.32.104
    Stream #0:0: Video: h264 (avc1 / 0x31637661), yuv420p(progressive), 202x360 [SAR 135:101 DAR 3:4], q=2-31, 25 fps, 25 tbr, 90k tbn, 90k tbc
    Stream #0:1(und): Audio: aac (mp4a / 0x6134706D), 44100 Hz, stereo, fltp, 4 kb/s
Stream mapping:
  Stream #0:0 -> #0:0 (copy)
  Stream #0:1 -> #0:1 (copy)
Press [q] to stop, [?] for help
frame= 2384 fps=0.0 q=-1.0 Lsize=    4371kB time=00:01:35.29 bitrate= 375.7kbits/s speed=2.43e+03x    
video:2939kB audio:1353kB subtitle:0kB other streams:0kB global headers:0kB muxing overhead: 1.834191%
